<?xml version="1.0" encoding="utf-8"?>
<!-- Generator: Adobe Illustrator 21.1.0, SVG Export Plug-In . SVG Version: 6.00 Build 0)  -->
<svg version="1.1" id="Layer_1" xmlns="http://www.w3.org/2000/svg" xmlns:xlink="http://www.w3.org/1999/xlink" x="0px" y="0px"
	 viewBox="0 0 595.1 172.6" style="enable-background:new 0 0 595.1 172.6;" xml:space="preserve">
<style type="text/css">
	.st0{fill:#FFFFFF;}
</style>
<g>
	<g>
		<path class="st0" d="M19.3,51.4c0,17.7,14.4,32.1,32.1,32.1c17.7,0,32.1-14.4,32.1-32.1c0-17.7-14.4-32.1-32.1-32.1
			C33.7,19.3,19.3,33.7,19.3,51.4 M12.7,47.9C12.7,24.5,31.6,5.6,55,5.6c23.3,0,42.2,18.9,42.2,42.2S78.3,90.1,55,90.1
			C31.6,90.1,12.7,71.2,12.7,47.9 M0,51.4c0,28.4,23,51.4,51.4,51.4c28.4,0,51.4-23,51.4-51.4S79.8,0,51.4,0C23,0,0,23,0,51.4"/>
	</g>
</g>
<g>
	<g>
		<path class="st0" d="M69.6,165.4l21.6-25.1H70.2v-7.6h32v6.6l-21.6,25.1h21.6v7.6H69.6V165.4z"/>
		<path class="st0" d="M106.7,152.5v-0.1c0-11.1,8.8-20.3,20.9-20.3c12.1,0,20.8,9,20.8,20.2v0.1c0,11.1-8.8,20.3-20.9,20.3
			C115.4,172.6,106.7,163.6,106.7,152.5z M139.3,152.5v-0.1c0-6.7-4.9-12.3-11.9-12.3c-6.9,0-11.8,5.5-11.8,12.2v0.1
			c0,6.7,4.9,12.3,11.9,12.3C134.5,164.7,139.3,159.2,139.3,152.5z"/>
		<path class="st0" d="M156,132.8h17.9c5,0,8.8,1.4,11.4,4c2.2,2.2,3.4,5.3,3.4,9v0.1c0,6.3-3.4,10.3-8.4,12.1l9.6,14h-10.1
			l-8.4-12.5h-6.8V172H156V132.8z M173.4,151.8c4.2,0,6.6-2.2,6.6-5.5v-0.1c0-3.7-2.6-5.6-6.8-5.6h-8.6v11.3H173.4z"/>
		<path class="st0" d="M196.5,132.8h8.6v17.1l15.9-17.1h10.4l-16,16.6l16.7,22.6h-10.4l-12.1-16.7l-4.5,4.7v12h-8.6V132.8z"/>
		<path class="st0" d="M249.7,132.5h8l16.8,39.5h-9l-3.6-8.8h-16.6l-3.6,8.8h-8.8L249.7,132.5z M258.8,155.6l-5.2-12.7l-5.2,12.7
			H258.8z"/>
		<path class="st0" d="M286.2,167.2c0,1.3-0.4,2.5-1.3,3.4c-0.9,0.9-2,1.4-3.4,1.4c-1.3,0-2.4-0.5-3.4-1.4c-0.9-0.9-1.4-2.1-1.4-3.4
			s0.5-2.4,1.4-3.3c0.9-0.9,2.1-1.4,3.4-1.4c1.3,0,2.4,0.5,3.3,1.4C285.7,164.8,286.2,165.9,286.2,167.2z"/>
		<path class="st0" d="M292.7,132.8h7.9l18.4,24.1v-24.1h8.5V172h-7.3l-19-24.9V172h-8.5V132.8z"/>
		<path class="st0" d="M337,132.8h29.6v7.7h-21v8H364v7.7h-18.5v8.2h21.3v7.7H337V132.8z"/>
		<path class="st0" d="M383.6,140.7h-11.9v-8h32.5v8h-11.9V172h-8.6V140.7z"/>
		<path class="st0" d="M407.7,132.8h9.2l8.1,26.5l8.8-26.6h7.4l8.8,26.6l8.1-26.5h9l-13.4,39.5h-7.5l-8.8-25.6l-8.8,25.6h-7.5
			L407.7,132.8z"/>
		<path class="st0" d="M469.6,152.5v-0.1c0-11.1,8.8-20.3,20.9-20.3s20.8,9,20.8,20.2v0.1c0,11.1-8.8,20.3-20.9,20.3
			S469.6,163.6,469.6,152.5z M502.2,152.5v-0.1c0-6.7-4.9-12.3-11.9-12.3s-11.8,5.5-11.8,12.2v0.1c0,6.7,4.9,12.3,11.9,12.3
			C497.4,164.7,502.2,159.2,502.2,152.5z"/>
		<path class="st0" d="M518.9,132.8h17.9c5,0,8.8,1.4,11.4,4c2.2,2.2,3.4,5.3,3.4,9v0.1c0,6.3-3.4,10.3-8.4,12.1l9.6,14h-10.1
			l-8.4-12.5h-6.8V172h-8.6V132.8z M536.3,151.8c4.2,0,6.6-2.2,6.6-5.5v-0.1c0-3.7-2.6-5.6-6.8-5.6h-8.6v11.3H536.3z"/>
		<path class="st0" d="M559.4,132.8h8.6v17.1l15.9-17.1h10.4l-16,16.6l16.7,22.6h-10.4l-12.1-16.7L568,160v12h-8.6V132.8z"/>
	</g>
</g>
</svg>
